<svg xmlns="http://www.w3.org/2000/svg" width="156.868" height="176.923" viewBox="0 0 156.868 176.923">
  <g id="_3" data-name="3" transform="translate(-1440.857 -1452.077)">
    <g id="Rectangle_9" data-name="Rectangle 9" transform="translate(1448 1539)" fill="#fff" stroke="#707070" stroke-width="1">
      <rect width="129" height="90" stroke="none"/>
      <rect x="0.5" y="0.5" width="128" height="89" fill="none"/>
    </g>
    <g id="Rectangle_10" data-name="Rectangle 10" transform="translate(1441 1511)" fill="#fff" stroke="#707070" stroke-width="1">
      <rect width="144" height="33" stroke="none"/>
      <rect x="0.5" y="0.5" width="143" height="32" fill="none"/>
    </g>
    <g id="Rectangle_11" data-name="Rectangle 11" transform="translate(1500 1511)" fill="#fff" stroke="#707070" stroke-width="1">
      <rect width="31" height="118" stroke="none"/>
      <rect x="0.5" y="0.5" width="30" height="117" fill="none"/>
    </g>
    <path id="Path_1" data-name="Path 1" d="M1481.8,1736.617c-52.642-14.04-45.055-37.776-45.055-37.776s5.559-39.613,37.3-5.218,33.614,41.383,36.986,43.781,41.519-52.855,64.088-56.438,16.221,22.214,16.221,22.214-9.387,29.138-45.356,33.438S1481.8,1736.617,1481.8,1736.617Z" transform="translate(5 -227)" fill="none" stroke="#707070" stroke-width="1"/>
  </g>
</svg>
